<?xml version="1.0" encoding="iso-8859-1"?>
<!-- Uploaded to: SVG Repo, www.svgrepo.com, Generator: SVG Repo Mixer Tools -->
<svg version="1.1" id="Layer_1" xmlns="http://www.w3.org/2000/svg" xmlns:xlink="http://www.w3.org/1999/xlink" 
	 viewBox="0 0 512.128 512.128" xml:space="preserve">
<rect x="0.128" y="99.116" style="fill:#11A4BC;" width="512" height="368.08"/>
<rect x="16.112" y="115.172" style="fill:#05C3D6;" width="480" height="336"/>
<g style="opacity:0.35;">
	<path style="fill:#FFFFFF;" d="M492.128,119.172v328h-472v-328L492.128,119.172 M496.128,115.172h-480v336h480V115.172
		L496.128,115.172z"/>
</g>
<path d="M512,99.116V73.684c0-15.816-12.936-28.752-28.752-28.752h-368.24H28.752C12.936,44.932,0,57.868,0,73.684v25.432H512z"/>
<path style="opacity:0.25;fill:#FFFFFF;enable-background:new    ;" d="M147.04,44.932h-32.024H28.752
	C12.936,44.932,0,57.868,0,73.684v25.432h115.888L147.04,44.932z"/>
<circle style="fill:#D80E47;" cx="40.536" cy="72.02" r="8.184"/>
<circle style="fill:#05C3D6;" cx="65.096" cy="72.02" r="8.184"/>
<g>
	<circle style="fill:#FFFFFF;" cx="89.656" cy="72.02" r="8.184"/>
	<path style="fill:#FFFFFF;" d="M428.256,86.396H170.88c-7.904,0-14.376-6.472-14.376-14.376l0,0
		c0-7.904,6.472-14.376,14.376-14.376h257.376c7.904,0,14.376,6.472,14.376,14.376l0,0C442.632,79.932,436.16,86.396,428.256,86.396
		z"/>
</g>
<path d="M180.576,65.468l1.968,7.56c0.432,1.672,0.832,3.2,1.112,4.752h0.096c0.336-1.512,0.832-3.112,1.32-4.72l2.432-7.592h2.28
	l2.304,7.456c0.552,1.784,0.984,3.344,1.32,4.856h0.096c0.24-1.512,0.648-3.08,1.144-4.832l2.12-7.488h2.68l-4.8,14.888h-2.464
	l-2.288-7.104c-0.52-1.656-0.952-3.144-1.32-4.888h-0.064c-0.368,1.784-0.832,3.328-1.352,4.92l-2.4,7.08h-2.464L177.8,65.468
	C177.8,65.468,180.576,65.468,180.576,65.468z"/>
<path d="M203.552,65.468l1.968,7.56c0.432,1.672,0.832,3.2,1.112,4.752h0.096c0.336-1.512,0.832-3.112,1.32-4.72l2.432-7.592h2.28
	l2.304,7.456c0.552,1.784,0.984,3.344,1.32,4.856h0.096c0.24-1.512,0.648-3.08,1.144-4.832l2.12-7.488h2.68l-4.8,14.888h-2.472
	l-2.28-7.104c-0.52-1.656-0.952-3.144-1.32-4.888h-0.064c-0.368,1.784-0.832,3.328-1.352,4.92l-2.4,7.08h-2.464l-4.496-14.888
	C200.776,65.468,203.552,65.468,203.552,65.468z"/>
<path d="M226.52,65.468l1.968,7.56c0.432,1.672,0.832,3.2,1.112,4.752h0.096c0.336-1.512,0.832-3.112,1.32-4.72l2.432-7.592h2.28
	l2.304,7.456c0.552,1.784,0.984,3.344,1.32,4.856h0.096c0.24-1.512,0.648-3.08,1.144-4.832l2.12-7.488h2.68l-4.8,14.888h-2.464
	l-2.288-7.104c-0.52-1.656-0.952-3.144-1.32-4.888h-0.064c-0.368,1.784-0.832,3.328-1.352,4.92l-2.4,7.08h-2.464l-4.496-14.888
	C223.744,65.468,226.52,65.468,226.52,65.468z"/>
<path d="M246.2,78.764c0-1.144,0.768-1.936,1.84-1.936s1.816,0.8,1.816,1.936c0,1.112-0.704,1.936-1.84,1.936
	C246.928,80.7,246.2,79.868,246.2,78.764z"/>
<g>
	<rect x="461.328" y="70.396" style="fill:#FFFFFF;" width="23" height="4"/>
	<polygon style="fill:#FFFFFF;" points="474.592,84.324 471.752,81.492 480.864,72.396 471.752,63.292 474.592,60.46 486.52,72.396 
			"/>
</g>
<polygon style="fill:#C9C9C9;" points="429.824,67.372 422.168,77.276 414.512,67.372 "/>
<g>
	<polygon style="fill:#FFFFFF;" points="203.416,355.98 239.296,319.396 239.296,407.676 272.768,407.676 272.768,319.396 
		308.648,355.98 332.528,332.676 256.032,254.684 179.536,332.676 	"/>
	<path style="fill:#FFFFFF;" d="M65.8,210.964c3.368,1.736,8.544,3.456,13.88,3.456c5.752,0,8.792-2.384,8.792-6
		c0-3.448-2.624-5.416-9.288-7.8C69.992,197.412,64,192.324,64,184.276c0-9.44,7.88-16.672,20.936-16.672
		c6.248,0,10.84,1.304,14.128,2.792l-2.792,10.096c-2.216-1.072-6.16-2.624-11.584-2.624c-5.416,0-8.048,2.464-8.048,5.336
		c0,3.536,3.128,5.088,10.264,7.8c9.784,3.616,14.376,8.712,14.376,16.512c0,9.272-7.136,17.168-22.328,17.168
		c-6.328,0-12.576-1.64-15.688-3.368L65.8,210.964z"/>
	<path style="fill:#FFFFFF;" d="M120.128,168.508v31.864c0,9.536,3.616,14.376,10.016,14.376c6.576,0,10.184-4.6,10.184-14.376
		v-31.864h12.48v31.04c0,17.088-8.624,25.216-23.088,25.216c-13.96,0-22.176-7.72-22.176-25.368v-30.888H120.128z"/>
	<path style="fill:#FFFFFF;" d="M161.544,169.252c3.272-0.664,9.936-1.16,16.176-1.16c7.64,0,12.328,0.744,16.344,3.128
		c3.864,2.048,6.656,5.832,6.656,10.84c0,4.928-2.872,9.52-9.12,11.832v0.16c6.328,1.72,11.008,6.496,11.008,13.64
		c0,5.008-2.296,8.952-5.752,11.736c-4.016,3.208-10.76,5.008-21.76,5.008c-6.168,0-10.76-0.408-13.552-0.824V169.252z
		 M173.936,190.436h4.112c6.576,0,10.104-2.712,10.104-6.808c0-4.2-3.208-6.416-8.872-6.416c-2.712,0-4.28,0.168-5.344,0.336
		L173.936,190.436L173.936,190.436z M173.936,214.996c1.24,0.168,2.712,0.168,4.848,0.168c5.664,0,10.68-2.136,10.68-7.968
		c0-5.584-5.016-7.8-11.256-7.8h-4.28v15.6H173.936z"/>
	<path style="fill:#FFFFFF;" d="M209.448,210.964c3.368,1.736,8.544,3.456,13.88,3.456c5.752,0,8.792-2.384,8.792-6
		c0-3.448-2.624-5.416-9.288-7.8c-9.192-3.208-15.184-8.296-15.184-16.344c0-9.44,7.88-16.672,20.936-16.672
		c6.248,0,10.84,1.304,14.128,2.792l-2.792,10.096c-2.216-1.072-6.16-2.624-11.584-2.624c-5.416,0-8.048,2.464-8.048,5.336
		c0,3.536,3.128,5.088,10.264,7.8c9.784,3.616,14.376,8.712,14.376,16.512c0,9.272-7.144,17.168-22.328,17.168
		c-6.328,0-12.576-1.64-15.688-3.368L209.448,210.964z"/>
	<path style="fill:#FFFFFF;" d="M291.952,222.3c-2.304,1.16-7.472,2.384-14.216,2.384c-19.136,0-28.992-11.912-28.992-27.68
		c0-18.888,13.472-29.4,30.232-29.4c6.48,0,11.416,1.304,13.632,2.464l-2.544,9.928c-2.544-1.056-6.08-2.048-10.512-2.048
		c-9.936,0-17.656,6-17.656,18.312c0,11.088,6.576,18.08,17.736,18.08c3.784,0,7.968-0.824,10.432-1.816L291.952,222.3z"/>
	<path style="fill:#FFFFFF;" d="M298.064,169.252c4.016-0.664,10.016-1.16,16.672-1.16c8.216,0,13.96,1.24,17.904,4.352
		c3.272,2.632,5.088,6.496,5.088,11.584c0,7.072-5.008,11.912-9.768,13.632v0.248c3.864,1.568,5.984,5.256,7.384,10.352
		c1.736,6.232,3.456,13.464,4.528,15.6h-12.824c-0.904-1.568-2.216-6.08-3.864-12.896c-1.472-6.896-3.864-8.776-8.952-8.872h-3.784
		v21.768h-12.392v-54.608H298.064z M310.456,193.068h4.928c6.248,0,9.936-3.128,9.936-7.968c0-5.096-3.448-7.64-9.192-7.72
		c-3.04,0-4.76,0.248-5.672,0.408L310.456,193.068L310.456,193.068z"/>
	<path style="fill:#FFFFFF;" d="M357.232,168.508v55.352h-12.56v-55.352H357.232z"/>
	<path style="fill:#FFFFFF;" d="M365.992,169.252c3.272-0.664,9.936-1.16,16.176-1.16c7.64,0,12.328,0.744,16.344,3.128
		c3.864,2.048,6.656,5.832,6.656,10.84c0,4.928-2.872,9.52-9.12,11.832v0.16c6.328,1.72,11.008,6.496,11.008,13.64
		c0,5.008-2.296,8.952-5.752,11.736c-4.016,3.208-10.76,5.008-21.76,5.008c-6.168,0-10.76-0.408-13.552-0.824L365.992,169.252
		L365.992,169.252z M378.384,190.436h4.112c6.576,0,10.104-2.712,10.104-6.808c0-4.2-3.208-6.416-8.872-6.416
		c-2.712,0-4.28,0.168-5.344,0.336V190.436z M378.384,214.996c1.24,0.168,2.712,0.168,4.848,0.168c5.664,0,10.68-2.136,10.68-7.968
		c0-5.584-5.016-7.8-11.256-7.8h-4.28v15.6H378.384z"/>
	<path style="fill:#FFFFFF;" d="M446.432,200.452h-20.376v13.144H448.8v10.264h-35.312v-55.352h34.16v10.264h-21.6v11.504h20.384
		V200.452z"/>
</g>
</svg>