<?xml version="1.0" encoding="iso-8859-1"?>
<!-- Uploaded to: SVG Repo, www.svgrepo.com, Generator: SVG Repo Mixer Tools -->
<svg version="1.1" id="Layer_1" xmlns="http://www.w3.org/2000/svg" xmlns:xlink="http://www.w3.org/1999/xlink" 
	 viewBox="0 0 512 512" xml:space="preserve">
<polygon style="fill:#F9F0B5;" points="255.988,43.792 76.212,153.221 435.792,153.236 "/>
<rect x="8.17" y="144.536" style="fill:#559156;" width="495.66" height="248.886"/>
<polygon style="fill:#58AB5B;" points="503.83,89.088 503.83,161.966 256,312.81 8.17,161.966 8.17,89.088 "/>
<path style="fill:#84C688;" d="M470.659,175.616c-28.313-0.251-51.189-24.38-51.189-52.758H92.53
	c0,28.378-22.877,52.507-51.189,52.758l123.555,81.742c-0.033-1.001-0.054-2.013-0.054-3.024c0-50.35,32.087-99.884,91.158-99.884
	c64.999,0,91.158,49.533,91.158,99.884c0,1.012-0.022,2.023-0.054,3.024L470.659,175.616z"/>
<path style="fill:#58AB5B;" d="M470.659,173.437l-42.932,26.132l-80.624,49.074c0.033-1.001,0.054-2.013,0.054-3.024
	c0-50.35-40.807-91.169-91.158-91.169s-91.158,40.818-91.158,91.169c0,1.012,0.022,2.023,0.054,3.024l-80.624-49.074l-42.932-26.132
	c-0.163,0.011-0.327,0.011-0.49,0.011v144.33c28.541,0,51.679,23.138,51.679,51.679H419.47c0-28.541,23.138-51.679,51.679-51.679
	v-144.33C470.986,173.448,470.822,173.448,470.659,173.437z"/>
<path style="fill:#559156;" d="M256,306.274l91.103-55.449c-1.59,48.934-41.766,90.308-91.103,90.308s-89.513-41.374-91.103-90.308
	L256,306.274z"/>
<path style="fill:#84C688;" d="M306.332,231.076c0-14.834-12.025-26.858-26.858-26.858c-10.098,0-18.887,5.576-23.474,13.815
	c-4.586-8.239-13.375-13.815-23.474-13.815c-14.834,0-26.858,12.025-26.858,26.858c0,6.081,2.022,11.688,5.428,16.19L256,306.618
	l44.903-59.352C304.31,242.764,306.332,237.157,306.332,231.076z"/>
<g>
	<polygon style="fill:#FFCC3D;" points="231.62,330.654 256,389.065 8.17,466.671 8.17,194.647 	"/>
	<polygon style="fill:#FFCC3D;" points="503.83,194.647 503.83,466.671 256,389.065 280.38,330.654 	"/>
</g>
<polygon style="fill:#FFBB02;" points="503.83,466.671 8.17,466.671 231.62,330.654 256,345.491 280.38,330.654 "/>
<g>
	<path style="fill:#1D2328;" d="M240.555,63.525l15.445-9.4l15.447,9.402c1.327,0.807,2.793,1.192,4.24,1.192
		c2.757,0,5.448-1.395,6.987-3.924c2.345-3.854,1.123-8.88-2.731-11.227l-19.696-11.988c-2.609-1.588-5.887-1.588-8.496,0
		l-19.692,11.986c-3.854,2.346-5.077,7.373-2.731,11.227C231.673,64.648,236.702,65.871,240.555,63.525z"/>
	<path style="fill:#1D2328;" d="M507.832,188.289c-2.573-1.447-5.728-1.392-8.251,0.144L276.268,324.363
		c-0.002,0.001-0.003,0.002-0.005,0.003L256,336.7L12.418,188.433c-2.523-1.536-5.677-1.592-8.251-0.144
		C1.593,189.735,0,192.458,0,195.412v272.028c0,0.056,0.008,0.11,0.009,0.166c0.003,0.164,0.012,0.33,0.025,0.496
		c0.009,0.11,0.019,0.219,0.033,0.327c0.019,0.154,0.042,0.306,0.07,0.459c0.021,0.119,0.044,0.237,0.07,0.354
		c0.031,0.136,0.066,0.271,0.105,0.405c0.037,0.132,0.075,0.261,0.119,0.39c0.039,0.117,0.083,0.233,0.127,0.349
		c0.054,0.142,0.113,0.282,0.175,0.419c0.047,0.102,0.096,0.204,0.146,0.304c0.073,0.145,0.15,0.288,0.232,0.428
		c0.028,0.049,0.051,0.101,0.081,0.15c0.022,0.037,0.05,0.068,0.073,0.103c0.149,0.236,0.309,0.464,0.48,0.684
		c0.035,0.044,0.065,0.092,0.101,0.135c0.195,0.239,0.405,0.464,0.626,0.679c0.078,0.076,0.161,0.147,0.242,0.22
		c0.157,0.141,0.318,0.276,0.486,0.405c0.089,0.069,0.178,0.136,0.269,0.202c0.215,0.151,0.437,0.293,0.667,0.424
		c0.038,0.021,0.074,0.047,0.112,0.069c0.278,0.153,0.566,0.285,0.862,0.405c0.061,0.025,0.124,0.045,0.185,0.069
		c0.236,0.089,0.477,0.167,0.722,0.234c0.083,0.023,0.164,0.044,0.247,0.063c0.233,0.056,0.471,0.1,0.71,0.136
		c0.083,0.012,0.164,0.027,0.248,0.038c0.296,0.034,0.597,0.056,0.902,0.057c0.017,0,0.035,0.003,0.052,0.003
		c0.005,0,0.011-0.001,0.016-0.001h495.612c0.005,0,0.011,0.001,0.016,0.001c0.017,0,0.035-0.003,0.052-0.003
		c0.305-0.001,0.606-0.023,0.902-0.057c0.084-0.01,0.166-0.025,0.248-0.038c0.241-0.036,0.477-0.081,0.71-0.136
		c0.083-0.02,0.166-0.041,0.247-0.063c0.246-0.068,0.487-0.146,0.722-0.234c0.062-0.023,0.124-0.044,0.185-0.069
		c0.296-0.12,0.584-0.253,0.862-0.405c0.038-0.021,0.074-0.047,0.112-0.069c0.23-0.131,0.452-0.272,0.667-0.424
		c0.092-0.064,0.18-0.133,0.269-0.202c0.168-0.129,0.329-0.264,0.486-0.405c0.081-0.073,0.163-0.144,0.242-0.22
		c0.221-0.215,0.431-0.44,0.626-0.679c0.035-0.044,0.066-0.09,0.101-0.135c0.172-0.219,0.331-0.448,0.48-0.684
		c0.023-0.036,0.05-0.066,0.073-0.103c0.029-0.049,0.052-0.1,0.082-0.15c0.082-0.139,0.159-0.282,0.232-0.428
		c0.051-0.101,0.1-0.203,0.146-0.304c0.062-0.137,0.12-0.278,0.175-0.419c0.045-0.117,0.088-0.232,0.127-0.349
		c0.044-0.129,0.082-0.259,0.119-0.39c0.038-0.135,0.073-0.269,0.105-0.405c0.026-0.117,0.049-0.235,0.07-0.354
		c0.027-0.154,0.051-0.306,0.07-0.459c0.013-0.109,0.023-0.218,0.033-0.327c0.013-0.166,0.022-0.33,0.025-0.496
		c0.001-0.056,0.009-0.11,0.009-0.166V195.412C512,192.458,510.407,189.735,507.832,188.289z M260.247,353.244l20.13-12.253
		l93.517,56.923c1.327,0.807,2.793,1.192,4.24,1.192c2.757,0,5.448-1.395,6.987-3.924c2.345-3.854,1.123-8.88-2.731-11.227
		l-86.299-52.529L495.66,209.949v242.952l-85.35-51.952c-3.854-2.344-8.88-1.123-11.227,2.731c-2.345,3.854-1.123,8.88,2.731,11.227
		l72.879,44.361H37.306L231.622,340.99l20.13,12.253C254.361,354.832,257.639,354.832,260.247,353.244z M215.908,331.425
		L16.34,452.901V209.949L215.908,331.425z"/>
	<path style="fill:#1D2328;" d="M503.83,81.057H8.17c-4.512,0-8.17,3.658-8.17,8.17v67.926c0,4.512,3.658,8.17,8.17,8.17
		s8.17-3.658,8.17-8.17V97.397H495.66v59.756c0,4.512,3.658,8.17,8.17,8.17s8.17-3.658,8.17-8.17V89.227
		C512,84.715,508.342,81.057,503.83,81.057z"/>
	<path style="fill:#1D2328;" d="M464.206,181.356c1.442,2.317,4.012,3.86,6.943,3.86c4.512,0,8.17-3.658,8.17-8.17v-3.46
		c0-4.512-3.658-8.17-8.17-8.17c-23.99,0-43.508-19.518-43.508-43.507c0-4.512-3.658-8.17-8.17-8.17H92.528
		c-4.512,0-8.17,3.658-8.17,8.17c0,23.99-19.517,43.507-43.507,43.507c-4.512,0-8.17,3.658-8.17,8.17v3.46
		c0,4.512,3.658,8.17,8.17,8.17c2.93,0,5.5-1.543,6.943-3.86c27.052-3.14,48.663-24.394,52.35-51.277h311.714
		C415.544,156.962,437.155,178.216,464.206,181.356z"/>
	<path style="fill:#1D2328;" d="M346.291,260.823c4.513,0.332,8.421-3.036,8.76-7.535c0.187-2.489,0.282-5.025,0.282-7.537
		c0-54.772-44.56-99.332-99.332-99.332s-99.332,44.56-99.332,99.332c0,2.512,0.095,5.048,0.282,7.537
		c0.322,4.291,3.904,7.558,8.139,7.558c0.205,0,0.413-0.008,0.621-0.023c4.5-0.339,7.874-4.26,7.535-8.76
		c-0.157-2.084-0.236-4.208-0.236-6.313c0-45.762,37.23-82.992,82.992-82.992s82.992,37.23,82.992,82.992
		c0,2.105-0.08,4.229-0.236,6.313C338.418,256.563,341.79,260.485,346.291,260.823z"/>
	<path style="fill:#1D2328;" d="M256,203.046c-6.346-5.729-14.677-9.04-23.474-9.04c-19.314,0-35.028,15.714-35.028,35.028
		c0,7.692,2.45,14.995,7.083,21.119l44.903,59.352c1.544,2.041,3.955,3.241,6.515,3.241c2.56,0,4.971-1.199,6.515-3.241
		l44.903-59.351c4.633-6.124,7.083-13.427,7.083-21.119c0-19.314-15.714-35.028-35.028-35.028
		C270.677,194.006,262.346,197.317,256,203.046z M298.162,229.035c0,4.104-1.305,7.997-3.774,11.261L256,291.035l-38.388-50.74
		c-2.469-3.263-3.774-7.156-3.774-11.261c0-10.304,8.384-18.688,18.688-18.688c6.774,0,13.032,3.685,16.335,9.618
		c1.442,2.591,4.173,4.196,7.139,4.196s5.696-1.606,7.139-4.196c3.302-5.933,9.561-9.618,16.335-9.618
		C289.778,210.347,298.162,218.73,298.162,229.035z"/>
</g>
</svg>