<?xml version="1.0" encoding="iso-8859-1"?>
<!-- Uploaded to: SVG Repo, www.svgrepo.com, Generator: SVG Repo Mixer Tools -->
<svg height="800px" width="800px" version="1.1" id="Layer_1" xmlns="http://www.w3.org/2000/svg" xmlns:xlink="http://www.w3.org/1999/xlink" 
	 viewBox="0 0 512 512" xml:space="preserve">
<g transform="translate(1 1)">
	<g>
		<polygon style="fill:#FFE100;" points="353.133,67.267 353.133,75.8 156.867,75.8 156.867,67.267 97.133,67.267 97.133,459.8 
			412.867,459.8 412.867,67.267 		"/>
		<path style="fill:#FFE100;" d="M455.533,425.667V35.693c0-5.973-5.12-11.093-11.093-11.093H327.533H293.4v25.6h-76.8V24.6h-34.133
			H65.56c-5.973,0-11.093,5.12-11.093,11.093v456.533c0,5.12,5.12,10.24,11.093,10.24h379.733c5.973,0,11.093-5.12,11.093-11.093
			v-51.2v-14.507H455.533z"/>
	</g>
	<g>
		<polygon style="fill:#FDCC00;" points="216.6,50.2 293.4,50.2 293.4,7.533 216.6,7.533 		"/>
		<polygon style="fill:#FDCC00;" points="293.4,24.6 293.4,50.2 216.6,50.2 216.6,24.6 156.867,24.6 156.867,75.8 353.133,75.8 
			353.133,24.6 		"/>
	</g>
	<path style="fill:#00DA6C;" d="M334.36,259.267c-5.973-11.947-29.013-25.6-29.013-25.6c-5.12-2.56-11.093-3.413-14.507,1.707
		c0,0-7.68,9.387-9.387,10.24c-8.533,5.973-17.067,5.973-24.747-2.56l-18.773-18.773l-18.773-18.773
		c-8.533-8.533-8.533-16.213-2.56-24.747c1.707-1.707,10.24-9.387,10.24-9.387c5.12-2.56,5.12-9.387,1.707-14.507
		c0,0-13.653-23.04-25.6-29.013c-5.12-2.56-11.093-1.707-15.36,2.56l-8.533,8.533c-26.453,26.453-13.653,56.32,12.8,82.773
		l23.893,23.893l23.893,23.893c26.453,26.453,56.32,39.253,82.773,12.8l8.533-8.533C336.067,271.213,336.92,264.387,334.36,259.267"
		/>
	<path style="fill:#FFA800;" d="M444.44,24.6h-17.067c5.973,0,11.093,5.12,11.093,11.093v389.973v15.36v51.2
		c0,5.973-5.12,11.093-11.093,11.093h17.067c5.973,0,11.093-5.12,11.093-11.093v-51.2v-15.36V35.693
		C455.533,29.72,450.413,24.6,444.44,24.6"/>
	<path style="fill:#FFFFFF;" d="M65.56,24.6h17.067c-5.973,0-11.093,5.12-11.093,11.093v389.973v15.36v51.2
		c0,5.12,5.12,10.24,11.093,10.24H65.56c-5.973,0-11.093-5.12-11.093-11.093v-51.2v-14.507V35.693
		C54.467,29.72,59.587,24.6,65.56,24.6"/>
	<path d="M293.4,58.733h-76.8c-5.12,0-8.533-3.413-8.533-8.533V7.533c0-5.12,3.413-8.533,8.533-8.533h76.8
		c5.12,0,8.533,3.413,8.533,8.533V50.2C301.933,55.32,298.52,58.733,293.4,58.733z M225.133,41.667h59.733v-25.6h-59.733V41.667z"/>
	<path d="M353.133,84.333H156.867c-5.12,0-8.533-3.413-8.533-8.533V24.6c0-5.12,3.413-8.533,8.533-8.533H216.6
		c5.12,0,8.533,3.413,8.533,8.533v17.067h59.733V24.6c0-5.12,3.413-8.533,8.533-8.533h59.733c5.12,0,8.533,3.413,8.533,8.533v51.2
		C361.667,80.92,358.253,84.333,353.133,84.333z M165.4,67.267h179.2V33.133h-42.667V50.2c0,5.12-3.413,8.533-8.533,8.533h-76.8
		c-5.12,0-8.533-3.413-8.533-8.533V33.133H165.4V67.267z"/>
	<path d="M421.4,468.333H88.6v-409.6h76.8v8.533h179.2v-8.533h76.8V468.333z M105.667,451.267h298.667V75.8h-42.667v8.533H148.333
		V75.8h-42.667V451.267z"/>
	<path d="M444.44,511H65.56c-11.093,0-19.627-8.533-19.627-19.627V35.693c0-11.093,8.533-19.627,19.627-19.627h159.573v25.6h59.733
		v-25.6H444.44c11.093,0,19.627,8.533,19.627,19.627v456.533C464.067,502.467,455.533,511,444.44,511z M65.56,33.133
		c-1.707,0-2.56,0.853-2.56,2.56v456.533c0,0.853,0.853,1.707,2.56,1.707h379.733c0.853,0,2.56-0.853,2.56-2.56V35.693
		c-0.853-1.707-1.707-2.56-3.413-2.56H301.933v25.6h-93.867v-25.6H65.56z"/>
	<path d="M292.547,306.2L292.547,306.2c-17.92,0-37.547-10.24-57.173-29.867l-48.64-48.64c-15.36-15.36-25.6-30.72-29.013-45.227
		c-4.267-17.92,0.853-34.987,15.36-49.493l8.533-8.533c6.827-6.827,17.067-7.68,25.6-3.413
		c13.653,6.827,27.307,29.867,29.013,32.427c3.413,5.12,4.267,11.093,2.56,16.213c-0.853,4.267-3.413,6.827-6.827,9.387
		c-3.413,2.56-7.68,6.827-8.533,7.68c-3.413,5.12-3.413,8.533,1.707,13.653l37.547,37.547c4.267,4.267,6.827,4.267,7.68,4.267
		c1.707,0,4.267-0.853,6.827-2.56c0.853-0.853,4.267-5.12,6.827-8.533c5.12-7.68,16.213-10.24,25.6-4.267
		c2.56,1.707,25.6,15.36,32.427,29.013c4.267,8.533,2.56,18.773-3.413,25.6l-8.533,8.533C319,300.227,306.2,306.2,292.547,306.2z
		 M196.973,135.533c-0.853,0-2.56,0.853-3.413,1.707l-8.533,8.533c-10.24,10.24-13.653,21.333-11.093,33.28
		c2.56,11.093,11.093,23.893,23.893,37.547l48.64,48.64c16.213,16.213,31.573,24.747,45.227,24.747l0,0
		c9.387,0,17.067-4.267,25.6-11.947l8.533-8.533c1.707-1.707,1.707-3.413,0.853-5.12c-3.413-6.827-17.92-17.067-25.6-22.187
		c-0.853-0.853-2.56-0.853-2.56-0.853l-0.853,0.853c-8.533,10.24-10.24,11.093-11.093,11.947c-12.8,8.533-24.747,6.827-35.84-3.413
		l-37.547-38.4c-10.24-10.24-11.947-23.04-3.413-35.84c0.853-0.853,1.707-2.56,11.947-11.093l0.853-0.853c0,0,0-0.853-0.853-2.56
		c-5.12-7.68-14.507-22.187-22.187-25.6C198.68,135.533,197.827,135.533,196.973,135.533z"/>
	<path d="M199.533,365.933h-42.667c-5.12,0-8.533-3.413-8.533-8.533s3.413-8.533,8.533-8.533h42.667c5.12,0,8.533,3.413,8.533,8.533
		S204.653,365.933,199.533,365.933z"/>
	<path d="M327.533,365.933H267.8c-5.12,0-8.533-3.413-8.533-8.533s3.413-8.533,8.533-8.533h59.733c5.12,0,8.533,3.413,8.533,8.533
		S332.653,365.933,327.533,365.933z"/>
	<path d="M233.667,365.933c-2.56,0-4.267-0.853-5.973-2.56s-2.56-3.413-2.56-5.973s0.853-4.267,2.56-5.973
		c2.56-2.56,5.973-3.413,9.387-1.707c0.853,0,1.707,0.853,2.56,1.707c1.707,1.707,2.56,4.267,2.56,5.973
		c0,2.56-0.853,4.267-2.56,5.973c-0.853,0.853-1.707,1.707-2.56,1.707C236.227,365.933,234.52,365.933,233.667,365.933"/>
	<path d="M361.667,365.933c-0.853,0-2.56,0-3.413-0.853c-0.853,0-1.707-0.853-2.56-1.707c-1.707-1.707-2.56-3.413-2.56-5.973
		s0.853-4.267,2.56-5.973c3.413-3.413,8.533-3.413,11.947,0c1.707,1.707,2.56,4.267,2.56,5.973c0,2.56-0.853,4.267-2.56,5.973
		C365.933,365.08,364.227,365.933,361.667,365.933"/>
	<path d="M361.667,408.6H319c-5.12,0-8.533-3.413-8.533-8.533s3.413-8.533,8.533-8.533h42.667c5.12,0,8.533,3.413,8.533,8.533
		S366.787,408.6,361.667,408.6z"/>
	<path d="M250.733,408.6H191c-5.12,0-8.533-3.413-8.533-8.533s3.413-8.533,8.533-8.533h59.733c5.12,0,8.533,3.413,8.533,8.533
		S255.853,408.6,250.733,408.6z"/>
	<path d="M284.867,408.6c-2.56,0-4.267-0.853-5.973-2.56c-1.707-1.707-2.56-3.413-2.56-5.973c0-0.853,0-2.56,0.853-3.413
		c0-0.853,0.853-1.707,1.707-2.56c3.413-3.413,8.533-3.413,11.947,0c1.707,1.707,2.56,4.267,2.56,5.973
		c0,2.56-0.853,4.267-2.56,5.973C289.133,407.747,287.427,408.6,284.867,408.6"/>
	<path d="M156.867,408.6c-2.56,0-4.267-0.853-5.973-2.56c-1.707-1.707-2.56-3.413-2.56-5.973c0-0.853,0-2.56,0.853-3.413
		s0.853-1.707,1.707-2.56c2.56-2.56,5.973-3.413,9.387-1.707c0.853,0,1.707,0.853,2.56,1.707c1.707,1.707,2.56,4.267,2.56,5.973
		c0,0.853,0,2.56-0.853,3.413c-0.853,0.853-0.853,1.707-1.707,2.56C161.133,407.747,159.427,408.6,156.867,408.6"/>
</g>
</svg>