<?xml version="1.0" encoding="iso-8859-1"?>
<!-- Uploaded to: SVG Repo, www.svgrepo.com, Generator: SVG Repo Mixer Tools -->
<svg height="800px" width="800px" version="1.1" id="Layer_1" xmlns="http://www.w3.org/2000/svg" xmlns:xlink="http://www.w3.org/1999/xlink" 
	 viewBox="0 0 512 512" xml:space="preserve">
<g transform="translate(-1)">
	<path style="fill:#48A0DC;" d="M142.279,88.276V35.31h17.655V0H54.003v35.31h17.655v114.759l-49.364,42.805
		c-7.477,6.63-2.781,18.988,7.212,18.988h42.152V476.69H54.003V512h405.998l0.071-35.31h-17.655V211.862h42.214
		c9.869,0,14.504-12.209,7.124-18.759L288.684,12.959c-17.752-17.09-45.833-17.09-63.576,0L142.279,88.276z"/>
	<path style="fill:#C8D2DA;" d="M257.037,308.966c-6.135,0-12.058-0.927-17.655-2.595v55.561h35.31V306.37
		C269.096,308.039,263.172,308.966,257.037,308.966"/>
	<path style="fill:#FFFFFF;" d="M318.83,247.172c0-34.127-27.666-61.793-61.793-61.793s-61.793,27.666-61.793,61.793
		s27.666,61.793,61.793,61.793S318.83,281.3,318.83,247.172"/>
	<path style="fill:#90A3AF;" d="M292.347,432.552h-70.621c-4.873,0-8.828-3.955-8.828-8.828v-70.621
		c0-4.873,3.955-8.828,8.828-8.828h70.621c4.873,0,8.828,3.955,8.828,8.828v70.621C301.175,428.597,297.22,432.552,292.347,432.552"
		/>
	<g>
		<path style="fill:#C8D2DA;" d="M212.899,353.103h-79.448c-4.873,0-8.828,3.257-8.828,8.828v52.966c0,5.57,3.955,8.828,8.828,8.828
			h79.448V353.103z"/>
		<path style="fill:#C8D2DA;" d="M301.175,423.724h79.448c4.873,0,8.828-3.257,8.828-8.828v-52.966c0-5.57-3.955-8.828-8.828-8.828
			h-79.448V423.724z"/>
	</g>
	<g>
		<path style="fill:#D75A4A;" d="M257.037,256.341c-2.233,0-4.467-0.839-6.179-2.525c-3.487-3.416-3.54-9.004-0.124-12.482
			l17.655-17.999c3.425-3.487,9.013-3.531,12.482-0.115c3.487,3.407,3.54,9.004,0.124,12.482l-17.655,17.991
			C261.61,255.458,259.323,256.341,257.037,256.341"/>
		<path style="fill:#D75A4A;" d="M292.347,247.172c0,4.873,3.946,8.828,8.828,8.828h16.949c0.415-2.887,0.706-5.826,0.706-8.828
			c0-3.001-0.291-5.941-0.706-8.828h-16.949C296.293,238.345,292.347,242.3,292.347,247.172"/>
		<path style="fill:#D75A4A;" d="M257.037,185.379c-3.001,0-5.941,0.291-8.828,0.706v16.949c0,4.873,3.946,8.828,8.828,8.828
			c4.882,0,8.828-3.955,8.828-8.828v-16.949C262.978,185.671,260.039,185.379,257.037,185.379"/>
		<path style="fill:#D75A4A;" d="M212.899,238.345H195.95c-0.415,2.887-0.706,5.826-0.706,8.828c0,3.001,0.291,5.941,0.706,8.828
			h16.949c4.882,0,8.828-3.955,8.828-8.828C221.727,242.3,217.781,238.345,212.899,238.345"/>
	</g>
</g>
</svg>