<?xml version="1.0" encoding="iso-8859-1"?>
<!-- Uploaded to: SVG Repo, www.svgrepo.com, Generator: SVG Repo Mixer Tools -->
<svg version="1.1" id="Layer_1" xmlns="http://www.w3.org/2000/svg" xmlns:xlink="http://www.w3.org/1999/xlink" 
	 viewBox="0 0 512 512" xml:space="preserve">
<path style="fill:#FA004B;" d="M325.436,76.136c-18.025-18.025-47.251-18.025-65.276,0c-0.171,0.171-1.976,1.976-4.895,4.895
	c-1.95-1.95-3.126-3.126-3.264-3.264c-18.025-18.025-43.84-20.63-65.276,0c-18.367,17.677-18.025,47.251,0,65.276
	c0.137,0.137,68.54,68.54,68.54,68.54s70.001-70.001,70.171-70.171C343.461,123.387,343.461,94.162,325.436,76.136z"/>
<g>
	<rect x="127.969" y="452.365" style="fill:#FAEDD6;" width="256.052" height="24.005"/>
	<rect x="39.953" y="476.37" style="fill:#FAEDD6;" width="48.174" height="24.005"/>
	<rect x="423.869" y="476.37" style="fill:#FAEDD6;" width="48.262" height="24.005"/>
</g>
<g>
	<rect x="119.607" y="476.37" style="fill:#FA004B;" width="272.787" height="24.005"/>
	<path style="fill:#FA004B;" d="M63.961,428.364L63.961,428.364c-17.677,0-32.006-14.33-32.006-32.006v-16.003h64.013v16.003
		C95.967,414.034,81.638,428.364,63.961,428.364z"/>
	<path style="fill:#FA004B;" d="M448.039,428.364L448.039,428.364c-17.677,0-32.006-14.33-32.006-32.006v-16.003h64.013v16.003
		C480.045,414.034,465.715,428.364,448.039,428.364z"/>
</g>
<path style="fill:#36C9A3;" d="M335.738,456.393h39.869v-20.029c0-66.287-53.319-120.024-119.607-120.024
	s-119.607,53.737-119.607,120.024v20.029h128"/>
<g>
	<rect y="496.262" style="fill:#232323;" width="512" height="15.738"/>
	<rect x="119.607" y="472.131" style="fill:#232323;" width="272.787" height="15.738"/>
	<rect x="271.738" y="448" style="fill:#232323;" width="56.656" height="15.738"/>
</g>
<path style="fill:#FA004B;" d="M287.874,292.721h-15.738c0-9.443-7.238-16.136-16.136-16.136c-8.898,0-16.136,6.694-16.136,16.136
	h-15.738c0-17.836,14.298-31.874,31.874-31.874S287.874,274.885,287.874,292.721z"/>
<g>
	<path style="fill:#232323;" d="M287.475,312.389v-8.127h-15.738v5.177c-5.159-0.635-10.41-0.967-15.738-0.967
		s-10.579,0.333-15.738,0.967v-5.177h-15.738v8.127C169.114,326.44,128,376.694,128,436.366v27.372h136.393V448H143.738v-11.635
		c0-61.843,50.361-112.155,112.262-112.155s112.262,50.312,112.262,112.155V448h-32.525v15.738H384v-27.373
		C384,376.692,342.886,326.44,287.475,312.389z"/>
	<path style="fill:#232323;" d="M24.086,332.477v63.88c0,19.121,13.532,35.136,31.521,38.988v36.786H39.869v15.738h48.262v-15.738
		H71.344v-36.595c18.471-3.474,32.493-19.714,32.493-39.178v-63.88L24.086,332.477L24.086,332.477z M88.1,396.357
		c0,13.31-10.829,24.137-24.138,24.137s-24.137-10.828-24.137-24.137v-8.161h39.914v-15.738H39.824v-24.244H88.1V396.357z"/>
	<path style="fill:#232323;" d="M408.163,332.477v63.88c0,19.464,14.022,35.705,32.493,39.178v36.595h-16.787v15.738h48.262v-15.738
		h-15.738v-36.786c17.988-3.852,31.521-19.866,31.521-38.988v-63.88L408.163,332.477L408.163,332.477z M472.176,396.357
		c0,13.31-10.828,24.137-24.137,24.137S423.9,409.667,423.9,396.357v-8.161h39.837v-15.738H423.9v-24.244h48.276V396.357z"/>
	<path style="fill:#232323;" d="M255.263,222.712l-5.565-5.564c-7.001-7.001-68.411-68.411-68.549-68.549
		c-10.265-10.265-16.079-24.488-15.939-39.01c0.137-14.343,5.84-27.657,16.059-37.49c22.418-21.578,51.777-22.281,73.945-2.136
		c10.122-9.815,23.439-15.214,37.583-15.214c14.431,0,27.998,5.619,38.203,15.824l0,0c10.204,10.204,15.824,23.771,15.824,38.202
		s-5.619,27.998-15.824,38.203c-0.164,0.165-67.314,67.313-70.172,70.171L255.263,222.712z M219.633,71.077
		c-9.402,0-18.892,4.121-27.452,12.36c-7.148,6.878-11.137,16.219-11.235,26.302c-0.099,10.323,4.035,20.435,11.343,27.74
		c0.334,0.335,46.705,46.706,62.974,62.975c16.538-16.537,64.269-64.268,64.603-64.603c7.236-7.236,11.219-16.852,11.219-27.079
		s-3.983-19.842-11.215-27.074c-7.232-7.232-16.847-11.214-27.074-11.214c-10.227,0-19.842,3.983-27.073,11.214l-10.461,10.46
		l-8.816-8.817C238.269,75.164,228.995,71.077,219.633,71.077z"/>
</g>
<g>
	<rect x="247.607" style="fill:#FAEDD6;" width="15.738" height="39.869"/>
	
		<rect x="292.134" y="7.315" transform="matrix(-0.7071 -0.7071 0.7071 -0.7071 494.9628 253.5974)" style="fill:#FAEDD6;" width="15.738" height="33.948"/>
	
		<rect x="195.013" y="16.42" transform="matrix(-0.7071 -0.7071 0.7071 -0.7071 344.7099 191.362)" style="fill:#FAEDD6;" width="33.948" height="15.738"/>
	<path style="fill:#FAEDD6;" d="M159.98,348.215h-8.001c-17.576,0-31.874-14.298-31.874-31.874
		c0-17.576,14.298-31.873,31.874-31.873h64.013v15.738h-64.013c-8.897,0-16.136,7.238-16.136,16.135s7.238,16.136,16.136,16.136
		h8.001L159.98,348.215L159.98,348.215z"/>
	<path style="fill:#FAEDD6;" d="M344.018,300.205h-48.009v-15.738h48.009c8.897,0,16.136-7.238,16.136-16.136
		c0-8.898-7.238-16.135-16.136-16.135H191.986c-17.575,0-31.873-14.298-31.873-31.874s14.298-31.873,31.873-31.873h16.004v15.738
		h-16.004c-8.896,0-16.135,7.238-16.135,16.135s7.238,16.136,16.135,16.136h152.03c17.576,0,31.874,14.298,31.874,31.873
		S361.594,300.205,344.018,300.205z"/>
</g>
<g>
	
		<rect x="1.323" y="205.825" transform="matrix(-0.7071 -0.7071 0.7071 -0.7071 -121.5275 377.049)" style="fill:#36C9A3;" width="32.006" height="15.738"/>
	
		<rect x="46.585" y="251.087" transform="matrix(-0.7071 -0.7071 0.7071 -0.7071 -76.2648 486.3213)" style="fill:#36C9A3;" width="32.006" height="15.738"/>
	
		<rect x="54.713" y="197.684" transform="matrix(-0.7071 -0.7071 0.7071 -0.7071 -44.2657 409.0392)" style="fill:#36C9A3;" width="15.738" height="32.006"/>
	
		<rect x="9.446" y="242.941" transform="matrix(-0.7071 -0.7071 0.7071 -0.7071 -153.5433 454.2876)" style="fill:#36C9A3;" width="15.738" height="32.006"/>
</g>
<rect x="32.102" y="228.327" transform="matrix(-0.7071 -0.7071 0.7071 -0.7071 -98.8762 431.7019)" style="fill:#FAEDD6;" width="15.737" height="16.004"/>
<g>
	
		<rect x="65.333" y="37.791" transform="matrix(-0.7071 -0.7071 0.7071 -0.7071 106.5631 135.4595)" style="fill:#36C9A3;" width="32.006" height="15.738"/>
	
		<rect x="110.595" y="83.049" transform="matrix(-0.7071 -0.7071 0.7071 -0.7071 151.8269 244.7238)" style="fill:#36C9A3;" width="32.005" height="15.738"/>
	
		<rect x="118.726" y="29.658" transform="matrix(-0.7071 -0.7071 0.7071 -0.7071 183.8234 167.4646)" style="fill:#36C9A3;" width="15.738" height="32.006"/>
	
		<rect x="73.466" y="74.924" transform="matrix(-0.7071 -0.7071 0.7071 -0.7071 74.5517 212.7345)" style="fill:#36C9A3;" width="15.738" height="32.006"/>
</g>
<rect x="96.088" y="60.278" transform="matrix(-0.7071 -0.7071 0.7071 -0.7071 129.1843 190.0695)" style="fill:#FAEDD6;" width="15.738" height="16.003"/>
<g>
	
		<rect x="425.415" y="133.802" transform="matrix(-0.7071 -0.7071 0.7071 -0.7071 653.3711 553.9768)" style="fill:#36C9A3;" width="32.006" height="15.738"/>
	
		<rect x="470.666" y="179.073" transform="matrix(-0.7071 -0.7071 0.7071 -0.7071 698.6085 663.256)" style="fill:#36C9A3;" width="32.006" height="15.738"/>
	
		<rect x="478.787" y="125.675" transform="matrix(-0.7071 -0.7071 0.7071 -0.7071 730.5912 585.9775)" style="fill:#36C9A3;" width="15.738" height="32.006"/>
	
		<rect x="433.519" y="170.944" transform="matrix(-0.7071 -0.7071 0.7071 -0.7071 621.3046 631.2477)" style="fill:#36C9A3;" width="15.738" height="32.006"/>
</g>
<rect x="456.149" y="156.31" transform="matrix(-0.7071 -0.7071 0.7071 -0.7071 675.9416 608.6078)" style="fill:#FAEDD6;" width="15.738" height="16.003"/>
<path style="fill:#FFFFFF;" d="M343.886,420.721h-15.738c0-31.475-24.935-56.504-56.41-56.504V348.48
	C311.607,348.48,343.886,380.852,343.886,420.721z"/>
</svg>