<?xml version="1.0" encoding="iso-8859-1"?>
<!-- Uploaded to: SVG Repo, www.svgrepo.com, Generator: SVG Repo Mixer Tools -->
<svg height="800px" width="800px" version="1.1" id="Layer_1" xmlns="http://www.w3.org/2000/svg" xmlns:xlink="http://www.w3.org/1999/xlink" 
	 viewBox="0 0 512 512" xml:space="preserve">
<g transform="translate(1 1)">
	<path style="fill:#FFFFFF;" d="M188.44,41.667l-29.013,51.2h43.52l17.92-51.2H188.44z"/>
	<path style="fill:#FFE100;" d="M386.413,268.653V116.76c0-12.8-9.387-23.893-20.48-23.893H144.067
		c-11.093,0-20.48,10.24-20.48,23.893v145.067c0,6.827-1.707,13.653-4.267,19.627l-13.653,32.427
		c-2.56,5.973-4.267,12.8-4.267,19.627v66.56l0,0h307.2v-64.853c0-7.68-1.707-15.36-5.12-22.187l-11.093-22.187
		C388.12,284.013,386.413,276.333,386.413,268.653"/>
	<path style="fill:#FFFFFF;" d="M101.4,333.507c0-6.827,1.707-13.653,4.267-19.627l13.653-32.427
		c2.56-5.973,4.267-12.8,4.267-19.627V116.76c0-12.8,9.387-23.893,20.48-23.893h-18.773c-13.653,0-23.893,10.24-23.893,23.893
		v145.067c0,6.827-1.707,13.653-4.267,19.627L80.92,313.88c-3.413,5.973-5.12,12.8-5.12,19.627v66.56l0,0h25.6l0,0V333.507z"/>
	<path style="fill:#FFA800;" d="M428.227,313.027l-12.8-22.187c-4.267-6.827-5.973-14.507-5.973-22.187V116.76
		c0-12.8-10.24-23.893-23.893-23.893h-19.627c11.093,0,20.48,10.24,20.48,23.893v151.893c0,7.68,1.707,15.36,5.12,22.187
		l11.093,22.187c3.413,6.827,5.12,14.507,5.12,22.187v64.853h25.6v-64.853C434.2,327.533,431.64,319.853,428.227,313.027"/>
	<path style="fill:#FFE100;" d="M331.8,92.867H186.733l19.627-51.2h106.667L331.8,92.867z"/>
	<path style="fill:#FFA800;" d="M331.8,41.667h-18.773l10.24,51.2h25.6L331.8,41.667z"/>
	<g>
		<path style="fill:#FFE100;" d="M60.44,220.867H39.96c-3.413,0-6.827-3.413-6.827-6.827v-53.76c0-4.267,3.413-7.68,6.827-7.68
			h19.627c4.267,0,7.68,3.413,7.68,6.827v53.76C67.267,217.453,63.853,220.867,60.44,220.867"/>
		<path style="fill:#FFE100;" d="M449.56,220.867h19.627c4.267,0,6.827-3.413,6.827-6.827v-53.76c0-4.267-3.413-6.827-6.827-6.827
			H449.56c-4.267,0-6.827,3.413-6.827,6.827v53.76C442.733,217.453,446.147,220.867,449.56,220.867"/>
	</g>
	<g>
		<path style="fill:#63D3FD;" d="M152.6,340.333c0,9.387-7.68,17.067-17.067,17.067s-17.067-7.68-17.067-17.067
			s7.68-17.067,17.067-17.067S152.6,330.947,152.6,340.333"/>
		<path style="fill:#63D3FD;" d="M391.533,340.333c0,9.387-7.68,17.067-17.067,17.067c-9.387,0-17.067-7.68-17.067-17.067
			s7.68-17.067,17.067-17.067C383.853,323.267,391.533,330.947,391.533,340.333"/>
	</g>
	<path style="fill:#FFE100;" d="M391.533,451.267H118.467c-9.387,0-17.067-7.68-17.067-17.067v-33.28h307.2v33.28
		C408.6,443.587,400.92,451.267,391.533,451.267"/>
	<path style="fill:#FFA800;" d="M408.6,400.067v33.28c0,9.387-7.68,17.067-17.067,17.067h25.6c9.387,0,17.067-7.68,17.067-17.067
		v-33.28H408.6z"/>
	<path style="fill:#FFFFFF;" d="M101.4,433.347v-33.28H75.8v33.28c0,9.387,7.68,17.067,17.067,17.067h25.6
		C109.08,450.413,101.4,442.733,101.4,433.347"/>
	<path style="fill:#3DB9F9;" d="M348.867,272.067H161.133c-9.387,0-17.067-7.68-17.067-17.067V152.6
		c0-9.387,7.68-17.067,17.067-17.067h187.733c9.387,0,17.067,7.68,17.067,17.067V255
		C365.933,264.387,358.253,272.067,348.867,272.067"/>
	<path style="fill:#63D3FD;" d="M323.267,272.067H161.133c-9.387,0-17.067-7.68-17.067-17.067V152.6
		c0-9.387,7.68-17.067,17.067-17.067h162.133c9.387,0,17.067,7.68,17.067,17.067V255
		C340.333,264.387,332.653,272.067,323.267,272.067"/>
	<path style="fill:#FFE100;" d="M161.133,502.467H152.6c-14.507,0-25.6-11.093-25.6-25.6v-34.133h59.733v34.133
		C186.733,491.373,175.64,502.467,161.133,502.467"/>
	<path style="fill:#FFFFFF;" d="M127,476.867v-34.133h-25.6v34.133c0,14.507,11.093,25.6,25.6,25.6h25.6
		C138.093,502.467,127,491.373,127,476.867"/>
	<path style="fill:#FFE100;" d="M348.867,502.467h8.533c14.507,0,25.6-11.093,25.6-25.6v-34.133h-59.733v34.133
		C323.267,491.373,334.36,502.467,348.867,502.467"/>
	<path style="fill:#FFA800;" d="M383,476.867v-34.133h25.6v34.133c0,14.507-11.093,25.6-25.6,25.6h-25.6
		C371.907,502.467,383,491.373,383,476.867"/>
	<path d="M348.867,101.4H161.133c-2.56,0-5.12-1.707-6.827-3.413c-1.707-2.56-1.707-5.12-0.853-7.68l17.067-51.2
		c0.853-3.413,4.267-5.973,7.68-5.973h153.6c3.413,0,6.827,2.56,7.68,5.973l17.067,51.2c0.853,2.56,0.853,5.12-0.853,7.68
		C353.987,99.693,351.427,101.4,348.867,101.4z M173.08,84.333h163.84L325.827,50.2H184.173L173.08,84.333z"/>
	<path d="M212.333,50.2c-2.56,0-4.267-0.853-5.973-2.56c-3.413-3.413-3.413-8.533,0-11.947L240.493,1.56
		c3.413-3.413,8.533-3.413,11.947,0s3.413,8.533,0,11.947L218.307,47.64C216.6,49.347,214.893,50.2,212.333,50.2z"/>
	<path d="M272.067,50.2c-2.56,0-4.267-0.853-5.973-2.56c-3.413-3.413-3.413-8.533,0-11.947L300.227,1.56
		c3.413-3.413,8.533-3.413,11.947,0c3.413,3.413,3.413,8.533,0,11.947L278.04,47.64C276.333,49.347,274.627,50.2,272.067,50.2z"/>
	<path d="M135.533,365.933c-14.507,0-25.6-11.093-25.6-25.6c0-14.507,11.093-25.6,25.6-25.6s25.6,11.093,25.6,25.6
		C161.133,354.84,150.04,365.933,135.533,365.933z M135.533,331.8c-5.12,0-8.533,3.413-8.533,8.533c0,5.12,3.413,8.533,8.533,8.533
		c5.12,0,8.533-3.413,8.533-8.533C144.067,335.213,140.653,331.8,135.533,331.8z"/>
	<path d="M374.467,365.933c-14.507,0-25.6-11.093-25.6-25.6c0-14.507,11.093-25.6,25.6-25.6c14.507,0,25.6,11.093,25.6,25.6
		C400.067,354.84,388.973,365.933,374.467,365.933z M374.467,331.8c-5.12,0-8.533,3.413-8.533,8.533c0,5.12,3.413,8.533,8.533,8.533
		c5.12,0,8.533-3.413,8.533-8.533C383,335.213,379.587,331.8,374.467,331.8z"/>
	<path d="M161.133,511H127c-18.773,0-34.133-15.36-34.133-34.133v-34.133h102.4v34.133C195.267,495.64,179.907,511,161.133,511z
		 M109.933,459.8v17.067c0,9.387,7.68,17.067,17.067,17.067h34.133c9.387,0,17.067-7.68,17.067-17.067V459.8H109.933z"/>
	<path d="M383,511h-34.133c-18.773,0-34.133-15.36-34.133-34.133v-34.133h102.4v34.133C417.133,495.64,401.773,511,383,511z
		 M331.8,459.8v17.067c0,9.387,7.68,17.067,17.067,17.067H383c9.387,0,17.067-7.68,17.067-17.067V459.8H331.8z"/>
	<path d="M348.867,280.6H161.133c-14.507,0-25.6-11.093-25.6-25.6V152.6c0-14.507,11.093-25.6,25.6-25.6h187.733
		c14.507,0,25.6,11.093,25.6,25.6V255C374.467,269.507,363.373,280.6,348.867,280.6z M161.133,144.067
		c-5.12,0-8.533,3.413-8.533,8.533V255c0,5.12,3.413,8.533,8.533,8.533h187.733c5.12,0,8.533-3.413,8.533-8.533V152.6
		c0-5.12-3.413-8.533-8.533-8.533H161.133z"/>
	<path d="M101.4,195.267H67.267c-5.12,0-8.533-3.413-8.533-8.533c0-5.12,3.413-8.533,8.533-8.533H101.4
		c5.12,0,8.533,3.413,8.533,8.533C109.933,191.853,106.52,195.267,101.4,195.267z"/>
	<path d="M60.44,229.4H39.96c-8.533,0-15.36-6.827-15.36-15.36v-53.76c0-8.533,6.827-15.36,15.36-15.36h19.627
		c8.533,0,15.36,6.827,15.36,15.36v53.76C75.8,222.573,68.973,229.4,60.44,229.4z M41.667,212.333h17.067v-51.2H41.667V212.333z"/>
	<path d="M442.733,195.267H408.6c-5.12,0-8.533-3.413-8.533-8.533c0-5.12,3.413-8.533,8.533-8.533h34.133
		c5.12,0,8.533,3.413,8.533,8.533C451.267,191.853,447.853,195.267,442.733,195.267z"/>
	<path d="M470.04,229.4h-19.627c-8.533,0-15.36-6.827-15.36-15.36v-53.76c0-8.533,6.827-15.36,15.36-15.36h19.627
		c8.533,0,15.36,6.827,15.36,15.36v53.76C485.4,222.573,478.573,229.4,470.04,229.4z M451.267,212.333h17.067v-51.2h-17.067V212.333
		z"/>
	<path d="M289.133,331.8h-68.267c-5.12,0-8.533-3.413-8.533-8.533s3.413-8.533,8.533-8.533h68.267c5.12,0,8.533,3.413,8.533,8.533
		S294.253,331.8,289.133,331.8z"/>
	<path d="M314.733,365.933H195.267c-5.12,0-8.533-3.413-8.533-8.533s3.413-8.533,8.533-8.533h119.467
		c5.12,0,8.533,3.413,8.533,8.533S319.853,365.933,314.733,365.933z"/>
	<path d="M195.267,280.6c-2.56,0-4.267-0.853-5.973-2.56c-3.413-3.413-3.413-8.533,0-11.947l42.667-42.667
		c3.413-3.413,8.533-3.413,11.947,0s3.413,8.533,0,11.947L201.24,278.04C199.533,279.747,197.827,280.6,195.267,280.6z"/>
	<path d="M272.067,280.6c-2.56,0-4.267-0.853-5.973-2.56c-3.413-3.413-3.413-8.533,0-11.947l42.667-42.667
		c3.413-3.413,8.533-3.413,11.947,0c3.413,3.413,3.413,8.533,0,11.947L278.04,278.04C276.333,279.747,274.627,280.6,272.067,280.6z"
		/>
	<path d="M434.2,408.6H75.8c-5.12,0-8.533-3.413-8.533-8.533v-66.56c0-7.68,1.707-16.213,5.12-23.04L88.6,278.04
		c3.413-5.12,4.267-11.093,4.267-16.213V116.76c0-17.92,14.507-32.427,32.427-32.427h259.413c17.92,0,32.427,14.507,32.427,32.427
		v151.893c0,5.973,1.707,12.8,5.12,17.92l12.8,22.187c5.12,7.68,7.68,17.067,7.68,26.453v64.853
		C442.733,405.187,439.32,408.6,434.2,408.6z M84.333,391.533h341.333v-56.32c0-5.973-1.707-12.8-5.12-17.92l-12.8-22.187
		c-5.12-7.68-7.68-17.067-7.68-26.453V116.76c0-8.533-6.827-15.36-15.36-15.36H125.293c-8.533,0-15.36,6.827-15.36,15.36v145.067
		c0,7.68-1.707,16.213-5.12,23.04L88.6,317.293c-3.413,5.12-4.267,11.093-4.267,16.213V391.533z"/>
	<path d="M417.133,459.8H92.867c-14.507,0-25.6-11.093-25.6-25.6v-33.28c0-5.12,3.413-8.533,8.533-8.533h358.4
		c5.12,0,8.533,3.413,8.533,8.533v33.28C442.733,448.707,431.64,459.8,417.133,459.8z M84.333,409.453V434.2
		c0,5.12,3.413,8.533,8.533,8.533h324.267c5.12,0,8.533-3.413,8.533-8.533v-24.747H84.333z"/>
</g>
</svg>