<svg width="256" height="232" viewBox="0 0 256 232" fill="none" xmlns="http://www.w3.org/2000/svg">
<mask id="mask0_28_1825" style="mask-type:luminance" maskUnits="userSpaceOnUse" x="60" y="0" width="196" height="225">
<path fill-rule="evenodd" clip-rule="evenodd" d="M60.3535 21.7293L230.504 0.837486L255.364 203.307L85.2137 224.199L60.3535 21.7293Z" fill="white"/>
</mask>
<g mask="url(#mask0_28_1825)">
<path fill-rule="evenodd" clip-rule="evenodd" d="M234.279 121.419C237.717 124.064 240.202 128.192 240.798 133.045C241.732 140.659 237.752 147.669 231.574 150.315C234.767 152.719 237.076 156.525 237.625 160.998L237.688 161.505C238.522 168.302 235.067 174.583 229.628 177.095C233.184 179.54 235.784 183.625 236.38 188.478L236.56 189.944C237.603 198.438 232.14 206.159 224.425 207.106L146.77 216.641C146.77 216.641 125.973 219.259 121.454 214.73C118.531 211.8 113.483 209.588 110.288 208.393C108.545 207.743 107.352 207.388 107.352 207.388L83.509 210.316L73.3762 127.79C73.3762 127.79 94.2385 123.849 106.211 115.529C108.415 114 110.315 112.322 111.733 110.497C120.847 98.7238 132.881 67.7097 133.18 52.1787C133.472 36.6488 128.28 26.6326 129.08 18.7909C129.873 10.943 155.18 2.03003 168.023 42.0876C173.611 59.5124 174.358 74.1428 173.413 85.1125C173.199 87.5553 172.905 89.815 172.567 91.8874L223.425 85.6428C226.787 85.23 230.063 85.9147 232.942 87.4416C238.193 90.2072 242.159 95.755 242.985 102.489C243.962 110.441 240.287 117.835 234.279 121.419" fill="#FEC997"/>
</g>
<path fill-rule="evenodd" clip-rule="evenodd" d="M106.145 115.779L110.281 208.969C108.541 208.315 107.351 207.958 107.351 207.958L83.567 210.879L73.398 128.059C73.398 128.059 94.2079 124.119 106.145 115.779" fill="#F1AF6F"/>
<mask id="mask1_28_1825" style="mask-type:luminance" maskUnits="userSpaceOnUse" x="11" y="109" width="95" height="123">
<path fill-rule="evenodd" clip-rule="evenodd" d="M11.3699 118.978L91.6798 109.117L105.437 221.157L25.1267 231.018L11.3699 118.978Z" fill="white"/>
</mask>
<g mask="url(#mask1_28_1825)">
<path fill-rule="evenodd" clip-rule="evenodd" d="M92.6662 117.149L104.451 213.125C104.996 217.564 101.855 221.598 97.4291 222.141L33.1366 230.035C28.1636 230.646 23.8399 226.613 24.0927 221.59L26.4762 173.987L28.9979 123.565C29.1933 119.636 32.1784 116.423 36.0698 115.945L83.6722 110.1C88.0977 109.557 92.1212 112.71 92.6662 117.149" fill="#5AA5E2"/>
</g>
<mask id="mask2_28_1825" style="mask-type:luminance" maskUnits="userSpaceOnUse" x="21" y="192" width="85" height="40">
<path fill-rule="evenodd" clip-rule="evenodd" d="M21.4773 202.575L101.787 192.714L105.318 221.47L25.0081 231.331L21.4773 202.575Z" fill="white"/>
</mask>
<g mask="url(#mask2_28_1825)">
<path fill-rule="evenodd" clip-rule="evenodd" d="M24.9547 202.148L23.9719 221.887C23.7202 226.919 28.0447 230.958 33.0182 230.348L97.3102 222.454C101.736 221.91 104.876 217.871 104.33 213.424L101.787 192.714L24.9547 202.148Z" fill="#5AA5E2"/>
</g>
<path fill-rule="evenodd" clip-rule="evenodd" d="M59.8721 202.407C60.4778 207.34 56.9695 211.831 52.036 212.437C47.1025 213.042 42.612 209.534 42.0062 204.601C41.4005 199.667 44.9089 195.177 49.8423 194.571C54.7758 193.965 59.2663 197.473 59.8721 202.407" fill="#3683C2"/>
<path fill-rule="evenodd" clip-rule="evenodd" d="M56.8721 202.407C57.4778 207.34 53.969 211.831 49.036 212.437C44.1025 213.042 39.612 209.534 39.0062 204.601C38.4005 199.667 41.9089 195.177 46.8423 194.571C51.7754 193.965 56.2663 197.473 56.8721 202.407" fill="#6FABDB"/>
<path opacity="0.3" fill-rule="evenodd" clip-rule="evenodd" d="M50.1427 195.169C51.4295 196.303 52.3226 197.876 52.546 199.695C53.0377 203.7 50.1175 207.354 46.0236 207.856C43.1608 208.208 40.4864 206.922 38.9658 204.751C38.9677 204.767 38.9674 204.783 38.9694 204.8C39.5619 209.625 44.0417 213.046 48.9752 212.44C53.9086 211.835 57.4277 207.432 56.8352 202.606C56.3801 198.9 53.6286 196.03 50.1427 195.169" fill="#182C31"/>
<mask id="mask3_28_1825" style="mask-type:luminance" maskUnits="userSpaceOnUse" x="130" y="1" width="125" height="215">
<path fill-rule="evenodd" clip-rule="evenodd" d="M130.328 13.3744L229.769 1.16459L254.629 203.634L155.188 215.844L130.328 13.3744Z" fill="white"/>
</mask>
<g mask="url(#mask3_28_1825)">
<path fill-rule="evenodd" clip-rule="evenodd" d="M242.251 102.815C241.424 96.0815 237.465 90.5413 232.219 87.7685L232.219 87.7662C232.207 87.7606 232.196 87.7554 232.184 87.7493C231.837 87.5671 231.486 87.3943 231.129 87.2364C231.118 87.2312 231.106 87.2275 231.095 87.2227C230.779 87.0841 230.458 86.958 230.135 86.8392C230.037 86.8033 229.938 86.7684 229.838 86.7336C229.561 86.6379 229.28 86.549 228.998 86.4685C228.927 86.4485 228.858 86.425 228.788 86.4059C228.453 86.3149 228.114 86.2374 227.774 86.1682C227.647 86.1424 227.519 86.121 227.391 86.0977C227.142 86.0516 226.89 86.0152 226.638 85.9827C226.538 85.9696 226.439 85.9549 226.339 85.9442C225.987 85.9056 225.633 85.878 225.277 85.8634C225.197 85.8601 225.116 85.8611 225.036 85.8591C224.741 85.8516 224.444 85.8528 224.147 85.862C224.042 85.8651 223.937 85.8684 223.832 85.8734C223.461 85.8926 223.089 85.9199 222.716 85.9657L207.265 87.8628L171.933 92.2011C172.028 91.618 172.118 91.0162 172.205 90.403C172.252 90.0713 172.297 89.7323 172.342 89.3915C172.385 89.0583 172.427 88.7203 172.468 88.3785C172.508 88.0443 172.548 87.7125 172.585 87.3703C172.654 86.7353 172.719 86.0892 172.776 85.427L172.774 85.4272C173.713 74.4559 172.967 59.831 167.387 42.4016C156.597 8.71736 137.015 9.65657 130.586 15.4742C137.991 18.2858 146.204 26.404 151.936 44.2987C158.758 65.605 158.358 82.7283 156.482 94.0982L157.436 101.868L214.176 94.9012C220.279 94.1518 225.968 98.4063 226.776 104.521C226.784 104.584 226.792 104.648 226.8 104.712C227.777 112.665 224.108 120.058 218.11 123.64C221.543 126.286 224.025 130.414 224.62 135.267C225.555 142.882 221.583 149.89 215.413 152.536C218.602 154.939 220.909 158.746 221.458 163.219L221.521 163.726C222.355 170.524 218.906 176.803 213.475 179.315C217.027 181.76 219.624 185.845 220.22 190.698L220.4 192.164C221.443 200.659 215.989 208.378 208.285 209.324L223.736 207.427C231.44 206.481 236.893 198.762 235.85 190.267L235.67 188.801C235.075 183.948 232.477 179.863 228.926 177.417C234.356 174.906 237.806 168.627 236.971 161.829L236.909 161.322C236.36 156.849 234.053 153.042 230.864 150.639C237.033 147.993 241.006 140.985 240.071 133.37C239.476 128.517 236.994 124.389 233.561 121.743C239.558 118.161 243.227 110.768 242.251 102.815" fill="#F1AF6F"/>
</g>
<path fill-rule="evenodd" clip-rule="evenodd" d="M47.273 197.785C48.127 198.531 47.9984 200.128 46.9855 201.353C45.9722 202.579 44.4588 202.968 43.6051 202.222C42.751 201.476 42.88 199.879 43.8926 198.654C44.9055 197.429 46.4189 197.04 47.273 197.785" fill="white"/>
</svg>
